<svg xmlns="http://www.w3.org/2000/svg" viewBox="0 0 300 200" fill="none" stroke="#14232b" stroke-width="3" stroke-linecap="round" stroke-linejoin="round">
<rect x="34" y="64" width="26" height="72" rx="3"/><path stroke-width="2" d="M40,64 L47,74 L54,64 M40,136 L47,126 L54,136"/><path stroke-width="2" d="M36,86 h22 M36,92 h22 M36,98 h22 M36,104 h22 M36,110 h22"/><path stroke-width="2" d="M60,100 H236"/><ellipse cx="250" cy="100" rx="14" ry="9" stroke-width="4"/><path stroke-width="2" d="M130,100 V120 M190,100 V120"/><path d="M130,120 v10 c0,9 14,9 14,0 v-5"/><path d="M190,120 v10 c0,9 14,9 14,0 v-5"/><path stroke-width="2" d="M90,100 V106"/><path fill="#d8821f" d="M81,124 C81,110 99,110 99,124 Z"/><circle cx="90" cy="127" r="2" stroke-width="2"/>
</svg>
